<svg height="16" viewBox="0 0 16 16" width="16" xmlns="http://www.w3.org/2000/svg"><path d="m4.1 11c1.4 0 1.9-1 1.9-1l-.8-.5s-.3.5-1 .5-1.2-.9-1.2-2.2c0-1.2.6-1.8 1.2-1.8.5 0 .9.4.9.4l.8-.6s-.7-.8-1.7-.8c-1.1 0-2.2.9-2.2 2.8s.9 3.2 2.1 3.2zm4.6-1.1c-.3.1-.7 0-1-.4l-.8.5c.4.6 1 1 1.6 1 .1 0 .3 0 .4-.1.7-.2 1.1-.8 1.1-1.6 0-1.2-.8-1.6-1.3-1.8-.5-.3-.7-.4-.7-.8s.1-.7.6-.7c.3 0 .6.4.6.4l.8-.6c-.2-.3-.7-.8-1.4-.8-.9 0-1.6.6-1.6 1.6 0 1.1.7 1.5 1.2 1.8.6.2.8.4.8.9 0 .3 0 .6-.3.6zm4 0c-.3.1-.7 0-1-.4l-.8.5c.4.6 1 1 1.6 1 .1 0 .3 0 .4-.1.7-.2 1.1-.8 1.1-1.6 0-1.2-.8-1.6-1.3-1.8-.5-.3-.7-.4-.7-.8s.1-.7.6-.7c.3 0 .6.4.6.4l.8-.6c-.2-.3-.7-.8-1.4-.8-.9 0-1.6.6-1.6 1.6 0 1.1.7 1.5 1.2 1.8.6.2.8.4.8.9 0 .3 0 .6-.3.6zm-12.7-9.9v16h16v-16zm15 15h-14v-14h14z" fill="#444"/></svg>