<svg xmlns="http://www.w3.org/2000/svg" width="142" height="56" viewBox="0 0 142 56" fill="none">
<g clip-path="url(#clip0_2700_8081)">
<path d="M23.8428 10.701C23.8428 16.703 18.9527 21.3604 12.6674 21.3604C6.38206 21.3604 1.49194 16.6891 1.49194 10.701C1.49194 4.67129 6.36825 0 12.6674 0C18.9665 0 23.8428 4.67129 23.8428 10.701ZM9.95986 2.93861C9.53163 4.6297 9.2968 7.33267 9.2968 10.701C9.2968 14.0277 9.53163 16.703 9.95986 18.4218C10.3052 19.9188 11.3689 20.8198 12.6536 20.8198C13.9383 20.8198 15.0019 19.9188 15.3473 18.4218C15.7755 16.6891 16.0103 14.0693 16.0103 10.701C16.0103 9.13466 15.8998 6.43168 15.7755 5.32277C15.4302 1.92673 14.5323 0.554456 12.6674 0.554456C11.3689 0.554456 10.3605 1.45545 9.95986 2.93861Z" fill="#fff"/>
<path d="M58.7642 8.70493C58.7642 10.8673 59.0819 12.2396 59.7865 13.4455C60.8087 15.2059 62.867 16.3148 65.2153 16.3148C68.4616 16.3148 70.2159 15.3723 71.9427 12.7525L72.3295 12.9049C71.4316 15.303 70.8099 16.4396 69.6772 17.8396C67.7985 20.1129 65.0634 21.3742 61.9 21.3742C55.7252 21.3742 51.2771 16.8693 51.2771 10.7148C51.2771 7.69305 52.6861 4.75443 55.0345 2.71681C57.148 0.873242 59.524 0.0554199 62.6183 0.0554199C65.6297 0.0554199 68.7102 1.62176 70.4784 4.06136C71.4592 5.43364 71.9289 6.61186 72.1913 8.73265H58.7642V8.70493ZM64.9805 8.19206C64.9805 5.53067 64.8976 4.2277 64.6628 3.17423C64.276 1.41384 63.4886 0.582153 62.2453 0.582153C59.9799 0.582153 58.7642 3.24354 58.7642 8.19206H64.9805V8.19206Z" fill="#fff"/>
<path d="M10.9406 25.8932C13.1232 23.8971 14.9328 23.0654 16.9635 23.0654C21.4944 23.0654 24.4644 26.9882 24.4644 32.9486C24.4644 39.1862 20.1683 44.4397 15.0848 44.4397C13.3304 44.4397 12.3496 44.0932 10.9406 42.9843V46.6714C10.9406 50.7882 11.3274 51.3011 14.4217 51.4536V51.8417H0V51.4536C1.79581 51.3011 2.50032 51.0654 3.05287 50.3169C3.6745 49.4991 3.79882 48.709 3.79882 44.911V32.0476C3.79882 29.6219 3.60543 28.6793 3.01143 27.8199C2.43125 27.0298 1.6853 26.7248 0.31772 26.6417L0.276278 26.212C2.22404 25.7823 3.24627 25.505 5.6637 24.7981C8.08113 24.0912 8.97903 23.8139 10.9406 23.0793V25.8932ZM10.9406 42.3189C11.5208 42.9011 12.1562 43.1783 12.8884 43.1783C14.2145 43.1783 15.3058 42.2773 15.8998 40.6278C16.5629 38.909 16.922 36.6219 16.922 34.3209C16.922 28.5961 15.4716 25.1862 13.1646 25.3803C12.5016 25.4219 12.0319 25.6575 10.9406 26.5169V42.3189V42.3189Z" fill="#fff"/>
<path d="M62.8118 41.1821C60.1596 43.4138 58.3499 44.3148 56.3607 44.4395C53.9709 44.5643 52.6034 43.3029 52.0646 40.5999C50.1445 43.2336 47.9205 44.4395 45.0334 44.4395C41.276 44.4395 39.0105 42.7207 39.0105 39.893C39.0105 37.6197 40.53 36.1643 44.909 34.3207C46.8568 33.5029 49.2466 32.6712 52.0232 31.8534V29.7326C52.0232 26.988 51.8712 25.7266 51.443 25.1029C51.0148 24.3959 50.3103 24.0494 49.4538 24.1187C48.3211 24.2019 47.3817 24.7841 46.912 25.7266C46.5253 26.4751 46.4838 26.7108 46.1661 29.2613C45.9727 30.5504 45.655 31.3405 44.9919 32.0474C44.246 32.9068 43.0442 33.4613 42.0634 33.4613C40.1847 33.4613 39.0519 32.3662 39.0519 30.6058C39.0519 28.9147 40.2261 27.4316 42.7264 26.0593C45.655 24.4098 50.5451 23.0791 53.5842 23.0791C55.6148 23.0791 56.5956 23.3563 57.604 24.2157C58.7367 25.1583 59.165 26.3781 59.165 28.693V38.0217C59.165 39.588 59.2064 40.1425 59.4412 40.6138C59.6761 41.1266 60.2563 41.4732 60.9608 41.4732C61.4304 41.4732 61.7758 41.3484 62.5632 40.891L62.8118 41.1821ZM52.0232 32.3246C48.3901 33.5029 47.2574 34.792 47.2574 37.7722C47.2574 40.4336 48.0448 41.6534 49.6748 41.6534C50.255 41.6534 50.8904 41.3346 51.3187 40.8633C51.8712 40.2811 52.0232 39.7266 52.0232 38.59V32.3246Z" fill="#fff"/>
<path d="M72.7301 26.9466C75.5481 24.0496 77.413 23.0654 80.1896 23.0654C81.9025 23.0654 83.4773 23.7308 84.2094 24.7565C84.8725 25.6991 85.1488 26.8773 85.1488 29.0258V39.505C85.1902 41.9031 85.1902 42.014 85.4665 42.5268C85.7842 43.1506 86.323 43.3862 87.58 43.511V43.8991H76.1283V43.511C77.0677 43.3862 77.5373 43.1644 77.7722 42.5268C77.9656 41.9724 78.007 41.9031 78.007 39.505V31.8536C78.007 28.5961 77.9241 27.8892 77.5788 27.1823C77.2334 26.5169 76.4046 26.0872 75.631 26.1565C74.6502 26.2397 73.7938 26.6694 72.7439 27.5704V39.4912C72.7439 41.8476 72.7439 41.9585 72.9788 42.513C73.2136 43.0951 73.6833 43.3724 74.6226 43.4971V43.8852H62.3559V43.4971C65.243 43.3446 65.6021 42.8318 65.6021 38.7149V32.0476C65.6021 29.6219 65.4087 28.6793 64.8147 27.8199C64.2346 27.0298 63.4886 26.7248 62.1625 26.6417L62.0796 26.212C66.0718 25.311 68.4478 24.604 72.7439 23.0793V26.9466H72.7301Z" fill="#fff"/>
<path d="M96.3382 31.7704C96.3382 33.9327 96.6559 35.305 97.3604 36.511C98.3827 38.2713 100.441 39.3803 102.789 39.3803C106.036 39.3803 107.79 38.4377 109.517 35.8179L109.903 35.9704C109.006 38.3684 108.384 39.505 107.251 40.905C105.372 43.1783 102.637 44.4397 99.474 44.4397C93.2991 44.4397 88.8511 39.9347 88.8511 33.7803C88.8511 30.7585 90.2601 27.8199 92.6085 25.7822C94.722 23.9387 97.098 23.1208 100.192 23.1208C103.204 23.1208 106.284 24.6872 108.052 27.1268C109.033 28.4991 109.503 29.6773 109.765 31.7981H96.3382V31.7704ZM102.554 31.2713C102.554 28.61 102.472 27.307 102.237 26.2535C101.85 24.4931 101.063 23.6614 99.8193 23.6614C97.5538 23.6614 96.3382 26.3228 96.3382 31.2713H102.554Z" fill="#fff"/>
<path d="M125.402 23.6198L124.422 25.5049H120.319V37.1901C120.319 40.3643 121.369 41.6257 123.952 41.501C124.657 41.4594 125.085 41.3485 125.983 41.0297L126.217 41.3762C123.289 43.5386 121.217 44.4396 119.186 44.4396C117.39 44.4396 116.023 44.0099 114.959 43.1089C113.633 42.0138 113.163 40.5584 113.163 37.6614V25.5049H109.102V25.1168C113.592 23.0376 117.031 20.0574 119.932 15.7881H120.319V23.6336H125.402V23.6198Z" fill="#fff"/>
<path d="M48.2934 19.4475C48.0171 18.9347 48.0171 18.8238 47.9757 16.4257V5.9604C47.9757 3.79802 47.6994 2.63366 47.0363 1.69109C46.3042 0.665347 44.7432 0 43.0165 0C40.2537 0 38.375 0.970297 35.5708 3.85347V4.49109C36.6207 3.60396 37.4633 3.17426 38.4441 3.09109C39.2315 3.00792 40.0465 3.43763 40.3919 4.11683C40.7372 4.82376 40.8201 5.5307 40.8201 8.78812V16.4396C40.8201 18.8376 40.7786 18.9069 40.5852 19.4614C40.3504 20.0852 39.8807 20.3208 38.9414 20.4456V20.8337H50.3931V20.4456C49.1499 20.3069 48.6111 20.0713 48.2934 19.4475Z" fill="#fff"/>
<path d="M131.108 44.4535C133.488 44.4535 135.418 42.5172 135.418 40.1287C135.418 37.7402 133.488 35.804 131.108 35.804C128.727 35.804 126.798 37.7402 126.798 40.1287C126.798 42.5172 128.727 44.4535 131.108 44.4535Z" fill="#65DBEF"/>
<path d="M35.5017 42.499C34.9215 41.7089 34.811 40.9743 34.811 37.5089V31.0357V26.9465V23.7584V23.6753V21.596V20.5149V12.8911V0C32.7942 1.44158 31.8963 1.99604 29.7551 3.14654C27.2272 4.51881 25.9701 5.10099 23.8428 5.89109V6.29307C27.3791 6.29307 27.6968 6.65347 27.6968 10.1604V12.8911V20.501V21.5822V23.6614V23.7446V26.9327V31.0218V37.7584C27.6968 41.0574 27.6278 41.7089 27.0476 42.499C26.5365 43.1921 25.8872 43.4 24.2296 43.5525V43.9129H38.2921V43.5525C36.6206 43.4 35.999 43.1782 35.5017 42.499Z" fill="#fff"/>
<path d="M132.641 21.5685V16.5784H131.26C131.218 16.5784 131.177 16.5646 131.149 16.5368C131.121 16.5091 131.108 16.4675 131.108 16.426V15.9408C131.108 15.8992 131.121 15.8576 131.149 15.8299C131.177 15.8022 131.218 15.7883 131.26 15.7883H134.906C134.948 15.7883 134.989 15.8022 135.017 15.8299C135.045 15.8576 135.058 15.8992 135.058 15.9408V16.4121C135.058 16.4537 135.045 16.4953 135.017 16.523C134.989 16.5507 134.948 16.5646 134.906 16.5646H133.525V21.5547C133.525 21.5963 133.511 21.6378 133.484 21.6656C133.456 21.6933 133.415 21.721 133.373 21.721H132.807C132.765 21.721 132.724 21.7071 132.696 21.6656C132.655 21.6517 132.641 21.6101 132.641 21.5685Z" fill="#fff"/>
<path d="M135.473 21.5407L136.523 15.8159C136.55 15.7327 136.592 15.6912 136.675 15.6912H136.813C136.882 15.6912 136.937 15.7189 136.951 15.7882L138.719 20.1407H138.747L140.515 15.7882C140.542 15.7327 140.584 15.6912 140.653 15.6912H140.791C140.874 15.6912 140.915 15.7327 140.943 15.8159L141.993 21.5407C142.021 21.6654 141.965 21.7347 141.841 21.7347H141.288C141.206 21.7347 141.15 21.6931 141.123 21.61L140.501 17.812H140.473L138.94 21.7209C138.912 21.7763 138.871 21.8179 138.802 21.8179H138.65C138.581 21.8179 138.526 21.7902 138.512 21.7209L136.978 17.812H136.951L136.343 21.61C136.343 21.6377 136.315 21.6654 136.288 21.6931C136.26 21.7209 136.219 21.7347 136.191 21.7347H135.638C135.5 21.7347 135.445 21.6654 135.473 21.5407Z" fill="#fff"/>
</g>
<defs>
<clipPath id="clip0_2700_8081">
<rect width="142" height="56" fill="white"/>
</clipPath>
</defs>
</svg>